<?xml version="1.0" standalone="no"?>
<!DOCTYPE svg PUBLIC "-//W3C//DTD SVG 20010904//EN"
 "http://www.w3.org/TR/2001/REC-SVG-20010904/DTD/svg10.dtd">
<svg version="1.0" xmlns="http://www.w3.org/2000/svg"
 width="236.000000pt" height="206.000000pt" viewBox="0 0 236.000000 206.000000"
 preserveAspectRatio="xMidYMid meet">

<g transform="translate(0.000000,206.000000) scale(0.100000,-0.100000)"
fill="#000000" stroke="none">
<path d="M1787 1818 c-20 -19 -264 -311 -1186 -1422 l-84 -101 169 -3 c98 -1
191 2 223 9 87 18 122 62 302 385 86 153 263 467 393 697 130 230 236 422 236
426 0 5 -6 14 -14 20 -11 9 -19 7 -39 -11z"/>
<path d="M330 1583 c1 -4 132 -142 293 -307 240 -244 297 -297 313 -292 18 7
44 36 163 183 l44 54 -149 150 c-82 82 -169 164 -194 182 l-45 32 -212 3
c-117 2 -213 0 -213 -5z"/>
<path d="M1375 750 c-42 -77 -75 -144 -73 -150 8 -25 236 -244 267 -258 44
-19 238 -27 366 -14 l90 8 -275 277 c-152 152 -280 277 -287 277 -6 0 -45 -63
-88 -140z"/>
</g>
</svg>
